<mxfile host="app.diagrams.net" modified="2023-11-14T17:51:04.908Z" agent="Mozilla/5.0 (Windows NT 10.0; Win64; x64) AppleWebKit/537.36 (KHTML, like Gecko) Chrome/119.0.0.0 Safari/537.36" version="22.1.1" etag="6uzLLFBawZpDxB7X_t8J" type="github">
  <diagram name="PÃ¡gina-1" id="z23K5onVeVBDLD0hBQRw">
    <mxGraphModel>
      <root>
        <mxCell id="0" />
        <mxCell id="1" parent="0" />
      </root>
    </mxGraphModel>
  </diagram>
</mxfile>
